<svg xmlns="http://www.w3.org/2000/svg"  viewBox="0 0 100 100" width="50px" height="50px"><path d="M 48.251953 12.685547 C 31.687615 13.051401 18.029116 25.968496 13.755859 42.566406 C 12.719254 46.591255 12.519552 50.598507 13.007812 54.466797 L 10.757812 55.029297 A 1.0004596 1.0004596 0 1 0 11.242188 56.970703 L 13.324219 56.451172 C 13.497417 57.364845 13.702931 58.270545 13.951172 59.164062 L 12.445312 60.167969 A 1.0001 1.0001 0 1 0 13.554688 61.832031 L 14.576172 61.152344 C 14.919376 62.14792 15.306956 63.128222 15.738281 64.089844 L 14.167969 66.445312 A 1.0001 1.0001 0 1 0 15.832031 67.554688 L 16.751953 66.175781 C 17.04957 66.739991 17.356864 67.29863 17.683594 67.847656 C 16.651503 71.919819 12.816406 84.736328 12.816406 84.736328 A 2.0002 2.0002 0 0 0 15.255859 87.244141 C 15.255859 87.244141 29.087229 83.494164 33.042969 82.464844 C 33.191363 82.545171 33.346681 82.614549 33.496094 82.693359 L 32.263672 84.417969 A 1.000252 1.000252 0 1 0 33.890625 85.582031 L 35.302734 83.607422 C 35.874179 83.877019 36.459633 84.123829 37.044922 84.369141 L 36.724609 86.873047 A 1.0002765 1.0002765 0 1 0 38.708984 87.126953 L 38.966797 85.113281 C 39.594542 85.340244 40.228587 85.552058 40.871094 85.748047 L 40.871094 88 A 1.0001 1.0001 0 1 0 42.871094 88 L 42.871094 86.3125 C 43.754524 86.529374 44.63236 86.70326 45.505859 86.847656 L 45.029297 88.757812 A 1.0004596 1.0004596 0 1 0 46.970703 89.242188 L 47.501953 87.117188 C 48.465232 87.218095 49.422076 87.284263 50.369141 87.300781 L 50.369141 89 A 1.0001 1.0001 0 1 0 52.369141 89 L 52.369141 87.269531 C 53.203324 87.232665 54.029543 87.162187 54.847656 87.0625 L 54.847656 88 A 1.0001 1.0001 0 1 0 56.847656 88 L 56.847656 86.755859 C 71.094289 84.10532 82.466533 72.095385 86.242188 57.433594 C 87.790211 51.423177 87.560713 45.463993 85.935547 39.984375 C 85.239714 37.636206 84.288957 35.376066 83.117188 33.230469 A 2.0002 2.0002 0 0 0 83.115234 33.230469 C 81.740928 30.716822 80.062867 28.35872 78.128906 26.199219 C 72.825661 20.277332 65.604721 15.838382 57.425781 13.755859 C 54.859913 13.102261 52.332605 12.756276 49.863281 12.689453 C 49.323117 12.674836 48.786287 12.673745 48.251953 12.685547 z M 48.279297 16.671875 C 48.75396 16.661962 49.230901 16.664163 49.710938 16.677734 C 51.157851 16.71864 52.630101 16.878877 54.119141 17.142578 L 53.386719 18.535156 A 1.0003094 1.0003094 0 1 0 55.158203 19.464844 L 56.154297 17.568359 C 56.249599 17.591724 56.344022 17.608503 56.439453 17.632812 C 57.09295 17.799206 57.737514 17.988226 58.376953 18.1875 L 57.308594 20.59375 A 1.0002746 1.0002746 0 1 0 59.136719 21.40625 L 60.279297 18.833984 C 61.418758 19.255894 62.53088 19.730035 63.613281 20.251953 L 62.642578 23.730469 A 1.0001 1.0001 0 1 0 64.568359 24.269531 L 65.427734 21.185547 C 66.572866 21.815227 67.678309 22.500956 68.740234 23.236328 L 68.740234 25 A 1.0001 1.0001 0 1 0 70.740234 25 L 70.740234 24.724609 C 71.377986 25.232491 71.99758 25.757738 72.595703 26.302734 L 71.167969 28.445312 A 1.0001 1.0001 0 1 0 72.832031 29.554688 L 74.060547 27.712891 C 74.431579 28.091513 74.796513 28.476163 75.148438 28.869141 C 75.496203 29.257463 75.827811 29.656989 76.15625 30.058594 L 74.232422 32.357422 A 1.0010407 1.0010407 0 1 0 75.767578 33.642578 L 77.408203 31.681641 C 78.191372 32.766204 78.907602 33.889702 79.546875 35.048828 L 77.871094 37.423828 A 1.0001 1.0001 0 1 0 79.505859 38.576172 L 80.564453 37.076172 C 81.170337 38.390825 81.690126 39.739245 82.099609 41.121094 C 83.530443 45.945476 83.735116 51.131964 82.369141 56.435547 C 80.714026 62.862762 77.507709 68.68129 73.216797 73.251953 L 70.095703 72.064453 A 1.0001 1.0001 0 0 0 69.705078 71.996094 A 1.0001 1.0001 0 0 0 69.384766 73.935547 L 71.671875 74.804688 C 70.551389 75.858439 69.368809 76.832851 68.128906 77.714844 L 65.707031 75.292969 A 1.0001 1.0001 0 0 0 64.990234 74.990234 A 1.0001 1.0001 0 0 0 64.292969 76.707031 L 66.425781 78.839844 C 65.696957 79.291426 64.953005 79.716495 64.191406 80.105469 L 60.810547 75.416016 A 1.0001 1.0001 0 0 0 59.951172 74.988281 A 1.0001 1.0001 0 0 0 59.189453 76.583984 L 62.347656 80.966797 C 56.694468 83.389533 50.279563 84.079119 43.558594 82.367188 C 40.246994 81.523146 37.109739 80.243583 34.226562 78.603516 A 2.0002 2.0002 0 0 0 32.740234 78.404297 C 29.950293 79.118916 21.440112 81.432387 17.632812 82.464844 C 18.705103 78.893628 20.985434 71.378664 21.763672 68.117188 A 2.0002 2.0002 0 0 0 21.507812 66.583984 C 17.220235 59.798385 15.52278 51.741949 17.628906 43.564453 C 18.478708 40.263709 19.720707 37.138506 21.291016 34.263672 L 22.552734 34.894531 A 1.0001163 1.0001163 0 1 0 23.447266 33.105469 L 22.296875 32.529297 C 22.780591 31.74344 23.290229 30.979124 23.824219 30.238281 L 25.292969 31.707031 A 1.0001 1.0001 0 1 0 26.707031 30.292969 L 25.050781 28.636719 C 26.268093 27.129187 27.59225 25.734766 29.011719 24.470703 L 31.607422 26.751953 A 1.0006194 1.0006194 0 1 0 32.927734 25.248047 L 30.560547 23.167969 C 32.062457 21.98592 33.65698 20.946872 35.330078 20.0625 L 36.869141 22.529297 A 1.0001662 1.0001662 0 0 0 38.566406 21.470703 L 37.138672 19.183594 C 40.591326 17.64413 44.338142 16.754183 48.279297 16.671875 z M 36.257812 29.875 C 35.51471 29.93364 34.725877 30.135926 33.927734 30.642578 A 2.0002 2.0002 0 0 0 33.927734 30.644531 C 32.788756 31.368272 30.92587 32.940043 29.501953 35.519531 C 28.078037 38.09902 27.291047 41.783281 28.9375 45.763672 C 31.938584 53.018958 37.479421 59.108783 41.742188 62.554688 C 43.957383 64.34539 47.38336 66.417319 51.123047 67.9375 C 54.862733 69.457681 58.883387 70.511499 62.494141 69.591797 C 65.583845 68.804812 67.986096 67.566342 69.558594 65.664062 C 71.131091 63.761784 71.660604 61.263065 71.298828 58.71875 A 2.0002 2.0002 0 0 0 70.097656 57.158203 C 65.804139 55.344762 59.939453 52.234375 59.939453 52.234375 A 2.0002 2.0002 0 0 0 57.285156 52.970703 L 55.072266 56.658203 C 52.601327 55.84401 47.031711 53.245158 43.394531 46.205078 C 44.942697 44.344487 45.822266 42.824219 45.822266 42.824219 A 2.0002 2.0002 0 0 0 45.847656 41.236328 L 41.847656 31.568359 A 2.0002 2.0002 0 0 0 40.552734 30.410156 C 40.552734 30.410156 39.552942 30.119472 38.316406 29.974609 C 37.698138 29.902179 37.000915 29.816364 36.257812 29.875 z M 37.199219 33.919922 C 37.409986 33.915865 37.633072 33.921669 37.851562 33.947266 C 38.23992 33.992766 38.28218 34.025106 38.560547 34.083984 L 41.779297 41.859375 C 41.43692 42.428794 40.855871 43.275502 39.564453 44.607422 A 2.0002 2.0002 0 0 0 39.179688 46.828125 C 44.557589 58.65951 55.607422 60.960938 55.607422 60.960938 A 2.0002 2.0002 0 0 0 57.714844 60.029297 L 59.775391 56.595703 C 61.024052 57.25126 63.868723 58.696335 67.324219 60.251953 C 67.331919 61.407962 67.11348 62.342382 66.474609 63.115234 C 65.654607 64.107206 64.093155 65.055828 61.505859 65.714844 C 59.439613 66.241141 55.96672 65.589241 52.628906 64.232422 C 49.291093 62.875602 46.055617 60.89861 44.257812 59.445312 C 40.49458 56.403217 35.261681 50.587042 32.634766 44.236328 C 31.467219 41.413719 32.006823 39.259386 33.003906 37.453125 C 34.00099 35.646864 35.653244 34.28579 36.072266 34.019531 L 36.072266 34.021484 C 36.043548 34.039709 36.566916 33.932094 37.199219 33.919922 z M 34.757812 66.058594 C 34.205813 66.058594 33.757812 66.506594 33.757812 67.058594 C 33.757812 67.610594 34.205813 68.058594 34.757812 68.058594 C 35.309812 68.058594 35.757812 67.610594 35.757812 67.058594 C 35.757812 66.506594 35.309812 66.058594 34.757812 66.058594 z M 39.757812 67.761719 A 1 1 0 0 0 39.757812 69.761719 A 1 1 0 0 0 39.757812 67.761719 z M 36.558594 71.710938 A 1 1 0 0 0 36.558594 73.710938 A 1 1 0 0 0 36.558594 71.710938 z"/></svg>