<svg xmlns="http://www.w3.org/2000/svg"  viewBox="0 0 100 100" width="50px" height="50px"><path d="M 24.611328 24.402344 C 20.792148 24.402344 15.071438 24.994358 10.103516 28.472656 C 5.1355928 31.950955 1.2055517 38.377275 1.0058594 48.953125 C 0.80455911 59.642115 5.5407304 65.952002 10.921875 69.136719 C 16.30302 72.321436 22.086573 72.648669 24.652344 72.595703 C 27.65411 72.533753 33.083234 71.128955 38.28125 67.521484 C 43.479266 63.914014 48.21875 57.845716 48.21875 48.990234 C 48.21875 39.608036 44.262167 33.244763 39.330078 29.478516 C 34.39799 25.712268 28.666832 24.402344 24.611328 24.402344 z M 66.748047 24.402344 C 64.370846 24.402344 60.678864 25.246298 57.828125 28.875 C 54.977386 32.503702 52.972864 38.601886 52.865234 48.970703 C 52.757475 59.401714 55.177302 65.401596 58.314453 68.777344 C 61.451604 72.153091 65.077737 72.661231 66.824219 72.595703 C 68.092787 72.548093 69.280512 72.062384 70.71875 71.181641 C 72.156988 70.300897 73.733756 68.980119 75.207031 67.121094 C 78.153582 63.403043 80.632812 57.533214 80.632812 48.990234 C 80.632813 30.714731 72.361828 24.402344 66.748047 24.402344 z M 92.138672 27.591797 C 91.330584 27.591797 90.278123 27.900485 89.412109 28.636719 C 88.546096 29.372953 87.849721 30.445675 87.267578 31.951172 C 86.103293 34.962165 85.320981 39.823284 85.277344 48.355469 C 85.233544 56.91831 86.160353 61.651557 87.46875 64.511719 C 88.777147 67.37188 90.803167 68.431815 92.291016 68.318359 C 93.833528 68.200622 94.224772 67.477916 94.894531 66.644531 C 95.56429 65.811146 96.217934 64.673233 96.820312 63.128906 C 98.02507 60.040253 99 55.336253 99 48.365234 C 99 40.87168 98.193496 35.991217 97.0625 32.800781 C 96.497002 31.205564 95.855311 30.02758 95.091797 29.148438 C 94.328283 28.269295 93.383384 27.591797 92.138672 27.591797 z M 24.611328 28.402344 C 26.558243 28.402344 29.244151 28.844666 31.972656 29.916016 L 31.277344 31.304688 A 1.0005531 1.0005531 0 0 0 33.066406 32.201172 L 33.800781 30.732422 C 34.448303 31.057876 35.08363 31.432923 35.708984 31.837891 L 33.474609 35.560547 A 1.0008552 1.0008552 0 1 0 35.191406 36.589844 L 37.337891 33.007812 C 37.878028 33.444703 38.40126 33.915011 38.902344 34.423828 L 37.759766 36.707031 A 1.0001161 1.0001161 0 1 0 39.548828 37.601562 L 40.322266 36.052734 C 42.646904 39.084909 44.21875 43.221983 44.21875 48.990234 C 44.21875 50.601913 44.03472 52.076739 43.714844 53.441406 L 40.816406 53.441406 A 1.0001 1.0001 0 1 0 40.816406 55.441406 L 43.119141 55.441406 C 42.716803 56.534935 42.217877 57.542391 41.638672 58.472656 L 39.208984 56.851562 A 1.0001 1.0001 0 0 0 38.644531 56.675781 A 1.0001 1.0001 0 0 0 38.099609 58.515625 L 40.488281 60.107422 C 39.982952 60.741717 39.438266 61.330376 38.867188 61.884766 L 33.960938 56.976562 A 1.0001 1.0001 0 0 0 33.242188 56.673828 A 1.0001 1.0001 0 0 0 32.544922 58.390625 L 37.361328 63.207031 C 36.915806 63.565016 36.463964 63.914333 36 64.236328 C 33.369973 66.061591 30.436298 67.226385 28.130859 67.892578 L 26.583984 64.798828 A 1.0001 1.0001 0 0 0 25.705078 64.234375 A 1.0001 1.0001 0 0 0 24.794922 65.693359 L 26.140625 68.384766 C 25.477648 68.514232 24.920864 68.590421 24.570312 68.597656 C 24.498846 68.599131 24.395515 68.595297 24.316406 68.595703 L 23.417969 65.003906 A 1.0001 1.0001 0 0 0 22.384766 64.234375 A 1.0001 1.0001 0 0 0 21.478516 65.490234 L 22.228516 68.494141 C 19.707907 68.263325 16.120194 67.566208 12.958984 65.695312 C 12.556323 65.457006 12.161312 65.195826 11.771484 64.921875 L 13.279297 63.917969 A 1.0001 1.0001 0 0 0 12.703125 62.078125 A 1.0001 1.0001 0 0 0 12.169922 62.253906 L 10.138672 63.607422 C 9.6286832 63.136999 9.1424711 62.620984 8.6855469 62.054688 L 11.269531 59.470703 A 1.0001 1.0001 0 0 0 10.542969 57.753906 A 1.0001 1.0001 0 0 0 9.8554688 58.056641 L 7.5273438 60.384766 C 5.9193696 57.688584 4.9111392 54.058911 5.0058594 49.029297 C 5.1159636 43.198098 6.3573662 39.122097 8.1875 36.193359 L 9.8554688 37.861328 A 1.0001 1.0001 0 1 0 11.269531 36.447266 L 9.3691406 34.546875 C 9.9557057 33.835842 10.580805 33.209235 11.234375 32.654297 L 12.947266 35.507812 A 1.0001 1.0001 0 1 0 14.662109 34.478516 L 12.845703 31.453125 C 13.592802 30.96867 14.371151 30.568618 15.162109 30.220703 L 16.152344 32.201172 A 1.0001 1.0001 0 1 0 17.939453 31.306641 L 17.037109 29.5 C 19.750359 28.637738 22.480133 28.402344 24.611328 28.402344 z M 66.748047 28.402344 C 67.601443 28.402344 69.175784 28.88789 70.820312 30.355469 L 68.353516 32.001953 A 1.0001 1.0001 0 1 0 69.462891 33.664062 L 72.195312 31.841797 C 72.751619 32.542605 73.289753 33.378377 73.794922 34.361328 L 70.826172 35.105469 A 1.0001 1.0001 0 1 0 71.3125 37.044922 L 74.626953 36.216797 C 75.105573 37.449166 75.526437 38.855812 75.855469 40.476562 L 69.988281 40.476562 A 1.0001 1.0001 0 1 0 69.988281 42.476562 L 76.189453 42.476562 C 76.383905 43.840448 76.514205 45.334863 76.576172 46.960938 L 73.230469 46.960938 A 1.0001 1.0001 0 1 0 73.230469 48.960938 L 76.632812 48.960938 C 76.632818 48.971184 76.632813 48.979978 76.632812 48.990234 C 76.632812 50.074077 76.585708 51.096095 76.505859 52.070312 L 73.472656 51.310547 A 1.0001 1.0001 0 0 0 73.175781 51.277344 A 1.0001 1.0001 0 0 0 72.988281 53.251953 L 76.28125 54.074219 C 75.844477 57.094315 75.027145 59.514875 74.048828 61.472656 L 70.361328 59.996094 A 1.0001 1.0001 0 0 0 69.970703 59.919922 A 1.0001 1.0001 0 0 0 69.617188 61.853516 L 73.064453 63.232422 C 72.740411 63.737377 72.408846 64.212011 72.072266 64.636719 C 71.702761 65.102972 71.329092 65.506814 70.957031 65.882812 L 67.455078 62.378906 A 1.0001 1.0001 0 0 0 66.736328 62.076172 A 1.0001 1.0001 0 0 0 66.039062 63.792969 L 69.455078 67.208984 C 69.168953 67.422416 68.892116 67.610301 68.628906 67.771484 C 67.601801 68.40046 66.67076 68.597771 66.673828 68.597656 C 65.88831 68.627126 63.468239 68.44794 61.244141 66.054688 C 59.628081 64.315718 57.998844 61.268043 57.265625 55.978516 L 58.550781 55.335938 A 1.0001 1.0001 0 0 0 58.107422 53.435547 A 1.0001 1.0001 0 0 0 57.65625 53.546875 L 57.029297 53.861328 C 56.907017 52.395597 56.846886 50.787788 56.865234 49.011719 C 56.888751 46.746155 57.018945 44.753363 57.216797 42.955078 L 58.867188 43.505859 A 1.0005641 1.0005641 0 1 0 59.5 41.607422 L 57.492188 40.9375 C 58.246559 36.127502 59.581358 33.116686 60.972656 31.345703 C 63.021167 28.738156 65.164248 28.402344 66.748047 28.402344 z M 91.994141 31.701172 C 92.029261 31.733052 92.023986 31.715894 92.072266 31.771484 C 92.372064 32.116686 92.843763 32.875061 93.291016 34.136719 C 93.357103 34.323148 93.42141 34.543594 93.486328 34.751953 L 92.361328 35.126953 A 1.0001 1.0001 0 1 0 92.994141 37.023438 L 93.992188 36.691406 C 94.381611 38.485592 94.702845 40.797006 94.871094 43.71875 L 91.597656 43.71875 A 1.0001 1.0001 0 1 0 91.597656 45.71875 L 94.958984 45.71875 C 94.981336 46.45541 94.993198 47.234881 94.996094 48.039062 L 91.597656 48.039062 A 1.0001 1.0001 0 1 0 91.597656 50.039062 L 94.96875 50.039062 C 94.94157 51.094725 94.89693 52.099224 94.824219 53.023438 L 92.994141 52.414062 A 1.0001 1.0001 0 0 0 92.701172 52.357422 A 1.0001 1.0001 0 0 0 92.361328 54.310547 L 94.619141 55.0625 C 94.256559 58.002434 93.681455 60.169072 93.09375 61.675781 C 92.637933 62.844367 92.187328 63.559388 91.851562 63.998047 C 91.666944 63.808766 91.455935 63.613777 91.105469 62.847656 C 90.220366 60.912818 89.235138 56.629112 89.277344 48.376953 C 89.319704 40.094138 90.158082 35.566788 90.998047 33.394531 C 91.414128 32.318491 91.807733 31.862013 91.994141 31.701172 z M 12.515625 44.71875 C 11.919625 44.71875 11.435547 45.201828 11.435547 45.798828 C 11.435547 46.394828 11.919625 46.878906 12.515625 46.878906 C 13.112625 46.878906 13.597656 46.394828 13.597656 45.798828 C 13.597656 45.201828 13.112625 44.71875 12.515625 44.71875 z M 21.367188 44.71875 C 20.770188 44.71875 20.287109 45.201828 20.287109 45.798828 C 20.287109 46.394828 20.770187 46.878906 21.367188 46.878906 C 21.963187 46.878906 22.447266 46.394828 22.447266 45.798828 C 22.447266 45.201828 21.963188 44.71875 21.367188 44.71875 z M 17.919922 49.476562 C 17.322922 49.476563 16.837891 49.960641 16.837891 50.556641 C 16.837891 51.152641 17.322922 51.636719 17.919922 51.636719 C 18.515922 51.636719 18.998047 51.152641 18.998047 50.556641 C 18.998047 49.960641 18.515922 49.476562 17.919922 49.476562 z"/></svg>